<?xml version="1.0" encoding="utf-8"?>
<!-- Generator: Adobe Illustrator 16.0.0, SVG Export Plug-In . SVG Version: 6.00 Build 0)  -->
<!DOCTYPE svg PUBLIC "-//W3C//DTD SVG 1.1//EN" "http://www.w3.org/Graphics/SVG/1.1/DTD/svg11.dtd">
<svg version="1.1" id="Camada_1" xmlns="http://www.w3.org/2000/svg" xmlns:xlink="http://www.w3.org/1999/xlink" x="0px" y="0px"
	 width="3000px" height="3000px" viewBox="0 0 3000 3000" enable-background="new 0 0 3000 3000" xml:space="preserve">
<g id="Camada_2">
	<g id="Camada_1-2">
		<path fill="#E4F2FE" d="M2598.388,1936.197H2305.01h-1.717c141.684-249.68,148.684-553.781,18.637-809.715
			c1.832-0.679,3.771-1.023,5.725-1.017h270.733c61.003,0,85.685-81.933,35.622-116.855l-984.583-654.057
			c-53.129-36.963-123.648-36.963-176.777,0l-984.774,653.675c-50.063,34.923-25.444,116.855,35.623,116.855h271.623
			c1.75,0.006,3.488,0.284,5.152,0.827c-130.318,256.066-123.34,560.46,18.574,810.287h-295.35
			c-61.004,0-85.685,81.932-35.623,116.854l984.584,653.421c53.128,36.963,123.647,36.963,176.777,0l985.028-653.675
			C2684.326,2017.874,2659.647,1936.197,2598.388,1936.197z M1818.506,2030.216c-1.961,4.853-7.486,7.194-12.34,5.233
			c-2.837-1.147-4.945-3.595-5.661-6.568c-25.446-107.315-103.18-208.84-236.953-208.84c-133.777,0-211.511,101.462-236.955,208.84
			c-1.225,5.088-6.343,8.222-11.433,6.996c-2.976-0.715-5.422-2.824-6.569-5.661c-57.75-140.81,9.581-301.773,150.389-359.524
			c140.808-57.749,301.772,9.582,359.522,150.391C1845.987,1888.085,1845.987,1963.213,1818.506,2030.216z M2036.759,1913.042
			c-18.004,42.917-42.838,82.638-73.535,117.618c-5.686,6.131-15.265,6.493-21.396,0.808c-4.373-4.055-5.959-10.298-4.049-15.946
			l0.571-1.399c65.694-191.91-29.734-401.745-217.552-478.361c-189.627-78.434-406.352,3.562-496.172,183.394l-0.508,1.144
			c-3.468,7.608-12.448,10.964-20.056,7.496c-5.739-2.616-9.255-8.519-8.824-14.812c3.531-46.294,14.553-91.71,32.633-134.475
			c93.127-221.242,349.865-325.628,573.205-233.265C2024.419,1437.607,2129.95,1691.865,2036.759,1913.042L2036.759,1913.042z
			 M2207.048,1619.665c-1.805,12.198-13.155,20.625-25.354,18.821c-9.524-1.408-17.074-8.765-18.729-18.249
			c-6.255-36.883-16.383-73.002-30.216-107.759c-109.095-275.566-438.413-422.319-714.807-314.815
			c-276.393,107.505-395.22,427.663-286.252,703.229c13.772,34.823,31.125,68.123,51.779,99.362
			c6.669,10.288,3.734,24.034-6.554,30.702c-8.128,5.271-18.735,4.661-26.206-1.506c-276.4-227.623-315.94-636.215-88.317-912.615
			c227.624-276.4,636.216-315.94,912.616-88.317c85.934,70.77,152.196,162.475,192.409,266.281
			C2208.477,1397.844,2222.132,1509.771,2207.048,1619.665z"/>
	</g>
</g>
</svg>
